<svg width="571" height="493" viewBox="0 0 571 493" fill="none" xmlns="http://www.w3.org/2000/svg">
<g filter="url(#filter0_di_3_205)">
<rect x="82.5719" y="88.3802" width="390.096" height="293.099" rx="21.0863" fill="#1C1C1E"/>
<rect x="84.1534" y="89.9617" width="386.933" height="289.936" rx="19.5048" stroke="url(#paint0_linear_3_205)" stroke-width="3.16294"/>
</g>
<g filter="url(#filter1_i_3_205)">
<path d="M85.7349 110.521C85.7349 100.04 94.2314 91.5431 104.712 91.5431H450.527C461.008 91.5431 469.505 100.04 469.505 110.521V120.01H85.7349V110.521Z" fill="#161618"/>
</g>
<circle cx="111.565" cy="106.831" r="3.6901" fill="#C93662"/>
<circle cx="124.217" cy="106.831" r="3.6901" fill="#D4A225"/>
<circle cx="136.869" cy="106.831" r="3.6901" fill="#29C0D1"/>
<g filter="url(#filter2_d_3_205)">
<rect x="44.6166" y="132.661" width="263.578" height="27.4121" rx="6.32588" fill="url(#paint1_linear_3_205)"/>
</g>
<g filter="url(#filter3_d_3_205)">
<path d="M22.4761 192.503C22.4761 186.097 27.6684 180.905 34.0735 180.905H262.859C269.265 180.905 274.457 186.097 274.457 192.503V302.094C274.457 308.499 269.265 313.692 262.859 313.692H34.0735C27.6684 313.692 22.4761 308.499 22.4761 302.094V192.503Z" fill="#36393E"/>
<path d="M135.288 262.539C169.677 186.92 237.318 180.431 263.628 180.951C269.894 181.075 274.457 186.326 274.457 192.593V302.406C274.457 308.811 269.265 314.003 262.859 314.003H36.1821C36.1821 314.003 114.107 309.114 135.288 262.539Z" fill="#2B2D31"/>
<rect x="33.0192" y="188.228" width="114.92" height="16.869" rx="3.16294" fill="#43464C" fill-opacity="0.9"/>
<path d="M39.1776 192.025H40.576V196.982C40.576 197.482 40.6859 197.876 40.9057 198.164C41.1255 198.444 41.4779 198.585 41.963 198.585C42.4481 198.585 42.8005 198.444 43.0203 198.164C43.2401 197.876 43.35 197.482 43.35 196.982V192.025H44.7484V196.982C44.7484 197.853 44.5172 198.554 44.0549 199.085C43.5926 199.608 42.8953 199.869 41.963 199.869C41.0231 199.869 40.322 199.608 39.8597 199.085C39.4049 198.554 39.1776 197.853 39.1776 196.982V192.025ZM49.006 199.869C48.8165 199.869 48.6232 199.85 48.4261 199.812C48.2367 199.775 48.0434 199.722 47.8463 199.653V202.177H46.5389V193.992H47.7781V194.776C48.1343 194.42 48.4375 194.181 48.6876 194.06C48.9377 193.938 49.1992 193.878 49.4721 193.878C50.1012 193.878 50.5863 194.113 50.9273 194.583C51.2684 195.053 51.4389 195.712 51.4389 196.561V197.175C51.4389 198.001 51.2305 198.657 50.8136 199.142C50.3968 199.627 49.7942 199.869 49.006 199.869ZM49.1197 195.094C48.9453 195.094 48.7596 195.147 48.5626 195.253C48.3731 195.352 48.1343 195.545 47.8463 195.833V198.471C48.2177 198.623 48.5588 198.698 48.8695 198.698C49.3091 198.698 49.6237 198.562 49.8132 198.289C50.0027 198.016 50.0974 197.645 50.0974 197.175V196.561C50.0974 196.053 50.0102 195.682 49.8359 195.447C49.6692 195.212 49.4304 195.094 49.1197 195.094ZM53.9567 196.538V197.209C53.9567 197.694 54.0438 198.058 54.2182 198.3C54.3925 198.543 54.6729 198.664 55.0595 198.664C55.249 198.664 55.4612 198.641 55.6961 198.596C55.9387 198.543 56.2002 198.463 56.4806 198.357L56.8558 199.46C56.5147 199.596 56.1926 199.699 55.8894 199.767C55.5862 199.835 55.2868 199.869 54.9913 199.869C54.2333 199.869 53.6535 199.627 53.2518 199.142C52.8501 198.657 52.6492 198.012 52.6492 197.209V196.538C52.6492 195.727 52.8501 195.083 53.2518 194.605C53.6535 194.12 54.2333 193.878 54.9913 193.878C55.2793 193.878 55.5711 193.912 55.8667 193.98C56.1623 194.048 56.473 194.147 56.7989 194.276L56.4238 195.401C55.878 195.189 55.4233 195.083 55.0595 195.083C54.6729 195.083 54.3925 195.204 54.2182 195.447C54.0438 195.682 53.9567 196.046 53.9567 196.538ZM62.7705 196.527V197.209C62.7705 198.012 62.5507 198.657 62.1111 199.142C61.6715 199.627 61.0499 199.869 60.2465 199.869C59.4431 199.869 58.8216 199.627 58.382 199.142C57.9424 198.657 57.7226 198.012 57.7226 197.209V196.527C57.7226 195.723 57.9386 195.083 58.3706 194.605C58.8102 194.12 59.4355 193.878 60.2465 193.878C61.0575 193.878 61.679 194.12 62.1111 194.605C62.5507 195.083 62.7705 195.723 62.7705 196.527ZM61.4289 196.527C61.4289 196.064 61.3266 195.704 61.1219 195.447C60.9173 195.181 60.6255 195.049 60.2465 195.049C59.8676 195.049 59.5757 195.181 59.3711 195.447C59.1665 195.704 59.0641 196.064 59.0641 196.527V197.209C59.0641 197.671 59.1665 198.035 59.3711 198.3C59.5757 198.566 59.8676 198.698 60.2465 198.698C60.6255 198.698 60.9173 198.566 61.1219 198.3C61.3266 198.035 61.4289 197.671 61.4289 197.209V196.527ZM65.5439 195.765V199.756H64.2365V193.992H65.4757V194.753C65.8319 194.442 66.1616 194.219 66.4648 194.082C66.768 193.946 67.0787 193.878 67.3971 193.878C68.1019 193.878 68.5832 194.189 68.8409 194.81C69.2199 194.477 69.5723 194.238 69.8983 194.094C70.2242 193.95 70.5539 193.878 70.8874 193.878C71.4179 193.878 71.8234 194.056 72.1039 194.412C72.3843 194.761 72.5245 195.253 72.5245 195.89V199.756H71.2171V196.049C71.2171 195.413 70.9745 195.094 70.4895 195.094C70.3 195.094 70.0915 195.14 69.8642 195.231C69.6368 195.322 69.3601 195.5 69.0342 195.765V199.756H67.7268V196.049C67.7268 195.413 67.4842 195.094 66.9991 195.094C66.8097 195.094 66.6012 195.14 66.3738 195.231C66.1465 195.322 65.8698 195.5 65.5439 195.765ZM75.5926 192.9H74.2169V191.547H75.5926V192.9ZM75.5585 199.756H74.251V193.992H75.5585V199.756ZM80.1793 195.094C79.9898 195.094 79.7738 195.14 79.5313 195.231C79.2887 195.322 79.0007 195.5 78.6672 195.765V199.756H77.3598V193.992H78.599V194.765C78.9552 194.454 79.2925 194.23 79.6108 194.094C79.9292 193.95 80.2513 193.878 80.5772 193.878C81.1305 193.878 81.5512 194.056 81.8392 194.412C82.1272 194.761 82.2712 195.253 82.2712 195.89V199.756H80.9638V196.049C80.9638 195.413 80.7023 195.094 80.1793 195.094ZM88.7855 200.335C88.7855 200.949 88.543 201.427 88.0579 201.768C87.5804 202.117 86.9134 202.291 86.0569 202.291C85.6552 202.291 85.2308 202.245 84.7836 202.155C84.3364 202.064 83.9233 201.912 83.5444 201.7L83.9195 200.665C84.2834 200.847 84.6434 200.976 84.9996 201.052C85.3558 201.135 85.7045 201.177 86.0456 201.177C86.5231 201.177 86.8869 201.112 87.137 200.983C87.3871 200.855 87.5122 200.684 87.5122 200.472C87.5122 200.146 87.3189 199.983 86.9324 199.983H85.5681C85.1967 199.983 84.8973 199.922 84.6699 199.801C84.4425 199.68 84.2758 199.524 84.1697 199.335C84.0636 199.138 84.0105 198.933 84.0105 198.721C84.0105 198.501 84.056 198.297 84.1469 198.107C84.2455 197.91 84.3781 197.728 84.5448 197.561C84.272 197.395 84.0522 197.171 83.8854 196.891C83.7263 196.61 83.6467 196.273 83.6467 195.879C83.6467 195.432 83.7414 195.06 83.9309 194.765C84.1204 194.469 84.3781 194.249 84.704 194.105C85.0375 193.954 85.4051 193.878 85.8068 193.878H86.0001C86.1517 193.878 86.2995 193.889 86.4435 193.912C86.5875 193.927 86.7239 193.954 86.8528 193.992H88.9106V195.106L87.7737 194.924C87.8874 195.045 87.9745 195.197 88.0352 195.379C88.1034 195.553 88.1375 195.769 88.1375 196.027C88.1375 196.413 88.0389 196.747 87.8419 197.027C87.6524 197.3 87.3947 197.512 87.0688 197.664C86.7504 197.808 86.3942 197.88 86.0001 197.88H85.8068C85.6552 197.88 85.5112 197.868 85.3748 197.846C85.2914 197.937 85.2308 198.031 85.1929 198.13C85.155 198.221 85.136 198.308 85.136 198.391C85.136 198.657 85.3066 198.789 85.6476 198.789H87.0347C87.5577 198.789 87.9783 198.926 88.2966 199.199C88.6226 199.464 88.7855 199.843 88.7855 200.335ZM86.0001 196.811C86.2351 196.811 86.4397 196.731 86.614 196.572C86.7959 196.413 86.8869 196.182 86.8869 195.879C86.8869 195.576 86.7959 195.344 86.614 195.185C86.4397 195.026 86.2351 194.947 86.0001 194.947H85.8068C85.5643 194.947 85.3521 195.026 85.1701 195.185C84.9958 195.344 84.9087 195.576 84.9087 195.879C84.9087 196.182 84.9958 196.413 85.1701 196.572C85.3521 196.731 85.5643 196.811 85.8068 196.811H86.0001ZM96.965 198.448V199.756H92.4855V192.025H96.8513V193.332H93.8498V195.185H96.5102V196.493H93.8498V198.448H96.965ZM102.826 193.992L100.779 199.756H99.5853L97.5389 193.992H98.8577L99.8468 196.868L100.222 198.062L100.586 196.868L101.529 193.992H102.826ZM108.183 199.426C107.789 199.585 107.418 199.699 107.069 199.767C106.72 199.835 106.391 199.869 106.08 199.869C105.224 199.869 104.576 199.627 104.136 199.142C103.696 198.657 103.477 198.012 103.477 197.209V196.527C103.477 195.989 103.575 195.523 103.772 195.128C103.969 194.734 104.25 194.427 104.613 194.208C104.977 193.988 105.405 193.878 105.898 193.878C106.3 193.878 106.675 193.961 107.024 194.128C107.38 194.287 107.668 194.541 107.888 194.89C108.115 195.231 108.229 195.67 108.229 196.208C108.229 196.368 108.217 196.538 108.195 196.72C108.172 196.894 108.134 197.08 108.081 197.277H104.738C104.754 197.747 104.871 198.1 105.091 198.335C105.311 198.569 105.663 198.687 106.148 198.687C106.406 198.687 106.671 198.657 106.944 198.596C107.225 198.535 107.513 198.444 107.808 198.323L108.183 199.426ZM105.898 194.981C105.549 194.981 105.277 195.094 105.08 195.322C104.89 195.541 104.78 195.86 104.75 196.277H106.933C106.94 196.239 106.944 196.205 106.944 196.174C106.944 196.136 106.944 196.102 106.944 196.072C106.944 195.708 106.842 195.435 106.637 195.253C106.432 195.072 106.186 194.981 105.898 194.981ZM112.555 195.094C112.365 195.094 112.149 195.14 111.907 195.231C111.664 195.322 111.376 195.5 111.042 195.765V199.756H109.735V193.992H110.974V194.765C111.33 194.454 111.668 194.23 111.986 194.094C112.304 193.95 112.627 193.878 112.952 193.878C113.506 193.878 113.926 194.056 114.214 194.412C114.502 194.761 114.646 195.253 114.646 195.89V199.756H113.339V196.049C113.339 195.413 113.078 195.094 112.555 195.094ZM119.842 199.562C119.645 199.653 119.418 199.725 119.16 199.778C118.902 199.839 118.641 199.869 118.375 199.869C117.936 199.869 117.583 199.778 117.318 199.596C117.053 199.415 116.859 199.161 116.738 198.835C116.625 198.509 116.568 198.137 116.568 197.721V195.128H115.635V193.992H116.568V192.491H117.875V193.992H119.671V195.128H117.875V197.721C117.875 198.069 117.94 198.312 118.068 198.448C118.205 198.577 118.398 198.641 118.648 198.641C118.769 198.641 118.898 198.63 119.035 198.607C119.179 198.577 119.338 198.528 119.512 198.46L119.842 199.562Z" fill="white"/>
<rect x="114.465" y="216.958" width="49.877" height="66.9492" rx="0.989609" fill="#43464C" fill-opacity="0.82" stroke="#CEC06F" stroke-width="0.526801"/>
<rect x="117.506" y="258.836" width="35.5305" height="3.30517" rx="1.29629" fill="#36393E"/>
<rect x="117.506" y="263.794" width="31.3991" height="1.65258" rx="0.826292" fill="#36393E"/>
<rect x="117.506" y="266.272" width="14.047" height="1.65258" rx="0.826292" fill="#36393E"/>
<rect x="132.38" y="266.272" width="9.08921" height="1.65258" rx="0.826292" fill="#36393E"/>
<rect x="117.506" y="277.841" width="9.08921" height="1.65258" rx="0.826292" fill="#36393E"/>
<rect x="117.506" y="275.362" width="6.61033" height="1.65258" rx="0.826292" fill="#36393E"/>
<rect x="152.211" y="276.188" width="9.08921" height="3.30517" rx="1.29629" fill="#36393E"/>
<rect x="117.506" y="220" width="43.7935" height="33.0517" rx="1.29629" fill="#36393E"/>
<path d="M117.506 245.906L126.205 238.078C126.205 238.078 126.854 237.208 127.655 237.208C128.455 237.208 129.104 238.078 129.104 238.078L136.063 245.326V253.155C136.063 253.155 119.246 253.155 118.376 253.155C117.506 253.155 117.506 251.995 117.506 251.995V245.906Z" fill="#555555"/>
<path d="M128.234 253.155L151.72 229.959C151.72 229.959 152.369 229.089 153.17 229.089C153.971 229.089 154.62 229.959 154.62 229.959L161.288 236.628V251.415C161.288 251.415 161.578 253.155 159.259 253.155H128.234Z" fill="#787878"/>
<circle cx="134.032" cy="230.329" r="4.5446" fill="#919191"/>
<rect x="58.5861" y="216.958" width="49.877" height="66.9492" rx="0.989609" fill="#43464C" fill-opacity="0.82" stroke="#CEC06F" stroke-width="0.526801"/>
<rect x="61.6278" y="258.836" width="35.5305" height="3.30517" rx="1.29629" fill="#36393E"/>
<rect x="61.6278" y="263.794" width="31.3991" height="1.65258" rx="0.826292" fill="#36393E"/>
<rect x="61.6278" y="266.272" width="14.047" height="1.65258" rx="0.826292" fill="#36393E"/>
<rect x="76.5011" y="266.272" width="9.08921" height="1.65258" rx="0.826292" fill="#36393E"/>
<rect x="61.6278" y="277.841" width="9.08921" height="1.65258" rx="0.826292" fill="#36393E"/>
<rect x="61.6278" y="275.362" width="6.61033" height="1.65258" rx="0.826292" fill="#36393E"/>
<rect x="96.3322" y="276.188" width="9.08921" height="3.30517" rx="1.29629" fill="#36393E"/>
<rect x="61.6278" y="220" width="43.7935" height="33.0517" rx="1.29629" fill="#36393E"/>
<path d="M61.6278 245.906L70.3262 238.078C70.3262 238.078 70.9753 237.208 71.7759 237.208C72.5766 237.208 73.2257 238.078 73.2257 238.078L80.1844 245.326V253.155C80.1844 253.155 63.3675 253.155 62.4976 253.155C61.6278 253.155 61.6278 251.995 61.6278 251.995V245.906Z" fill="#555555"/>
<path d="M72.3558 253.155L95.8415 229.959C95.8415 229.959 96.4905 229.089 97.2912 229.089C98.0919 229.089 98.7409 229.959 98.7409 229.959L105.41 236.628V251.415C105.41 251.415 105.7 253.155 103.38 253.155H72.3558Z" fill="#787878"/>
<circle cx="78.1536" cy="230.329" r="4.5446" fill="#919191"/>
<rect x="169.334" y="210.678" width="58.4496" height="78.4561" rx="1.1597" fill="#43464C" fill-opacity="0.82" stroke="#CEC06F" stroke-width="0.617345"/>
<rect x="172.899" y="259.753" width="41.6373" height="3.87324" rx="1.51909" fill="#36393E"/>
<rect x="172.899" y="265.563" width="36.7958" height="1.93662" rx="0.96831" fill="#36393E"/>
<rect x="172.899" y="268.468" width="16.4613" height="1.93662" rx="0.96831" fill="#36393E"/>
<rect x="190.328" y="268.468" width="10.6514" height="1.93662" rx="0.96831" fill="#36393E"/>
<rect x="172.899" y="282.024" width="10.6514" height="1.93662" rx="0.96831" fill="#36393E"/>
<rect x="172.899" y="279.119" width="7.74648" height="1.93662" rx="0.96831" fill="#36393E"/>
<rect x="213.568" y="280.087" width="10.6514" height="3.87324" rx="1.51909" fill="#36393E"/>
<rect x="172.899" y="214.242" width="51.3205" height="38.7324" rx="1.51909" fill="#36393E"/>
<path d="M172.899 244.601L183.092 235.427C183.092 235.427 183.853 234.408 184.791 234.408C185.729 234.408 186.49 235.427 186.49 235.427L194.645 243.921V253.095C194.645 253.095 174.937 253.095 173.918 253.095C172.899 253.095 172.899 251.736 172.899 251.736V244.601Z" fill="#555555"/>
<path d="M185.471 253.095L212.993 225.913C212.993 225.913 213.754 224.894 214.692 224.894C215.63 224.894 216.391 225.913 216.391 225.913L224.206 233.728V251.057C224.206 251.057 224.545 253.095 221.827 253.095H185.471Z" fill="#787878"/>
<circle cx="192.265" cy="226.346" r="5.32571" fill="#919191"/>
<line x1="82.5719" y1="301.04" x2="199.601" y2="301.04" stroke="#03FFF0" stroke-width="2.10863"/>
<circle cx="84.1534" cy="301.251" r="2.63578" fill="#03FFF0"/>
<circle cx="141.086" cy="301.251" r="2.63578" fill="#03FFF0"/>
<circle cx="198.283" cy="300.776" r="5.00799" fill="#03FFF0"/>
</g>
<path d="M210.144 264.666L213.664 313.952C213.729 314.864 214.847 315.267 215.478 314.605L223.842 305.842C224.354 305.307 225.244 305.451 225.559 306.121L232.839 321.592C233.106 322.159 233.806 322.369 234.341 322.043L244.488 315.867C245.013 315.547 245.154 314.847 244.793 314.348L235.429 301.416C234.961 300.769 235.352 299.858 236.143 299.752L247.819 298.196C248.73 298.074 249.06 296.926 248.352 296.339L210.144 264.666Z" fill="white"/>
<path d="M204.784 270.175L196.712 281.838L194.053 279.759L203.515 269.392L204.784 270.175Z" fill="white"/>
<path d="M200.629 264.634L186.597 266.709L186.298 263.347L200.333 263.172L200.629 264.634Z" fill="white"/>
<path d="M203.782 258.59L195.245 247.262L198.054 245.39L204.924 257.631L203.782 258.59Z" fill="white"/>
<path d="M211.892 257.873L220.507 246.604L223.065 248.806L213.122 258.715L211.892 257.873Z" fill="white"/>
<g filter="url(#filter4_i_3_205)">
<rect x="300.756" y="203.3" width="91.9131" height="69.3684" rx="2.72064" fill="#0276FF"/>
<path d="M300.756 257.672L319.012 241.241C319.012 241.241 320.374 239.416 322.054 239.416C323.735 239.416 325.097 241.241 325.097 241.241L339.702 256.455V272.885C339.702 272.885 304.407 272.885 302.581 272.885C300.756 272.885 300.756 270.451 300.756 270.451V257.672Z" fill="#03AEA3"/>
<path d="M323.271 272.885L372.563 224.202C372.563 224.202 373.925 222.377 375.605 222.377C377.286 222.377 378.648 224.202 378.648 224.202L392.644 238.199V269.234C392.644 269.234 393.253 272.885 388.385 272.885H323.271Z" fill="#01E1BB"/>
<circle cx="335.44" cy="224.978" r="9.53815" fill="#EFB52F"/>
</g>
<g filter="url(#filter5_d_3_205)">
<rect x="418.898" y="149.53" width="128.626" height="134.952" rx="14.7604" fill="#333439"/>
<rect x="421.006" y="151.639" width="124.409" height="130.735" rx="12.6518" stroke="url(#paint2_linear_3_205)" stroke-width="4.21725"/>
</g>
<path d="M423.115 163.764C423.115 158.232 427.599 153.748 433.131 153.748H533.291C538.822 153.748 543.307 158.232 543.307 163.764V175.888H423.115V163.764Z" fill="#25262A"/>
<g clip-path="url(#clip0_3_205)">
<path fill-rule="evenodd" clip-rule="evenodd" d="M526.24 159.986C525.585 159.986 524.939 160.142 524.357 160.443C523.775 160.743 523.273 161.178 522.894 161.712C522.514 162.245 522.267 162.862 522.174 163.51C522.081 164.159 522.145 164.82 522.359 165.439C522.574 166.057 522.933 166.616 523.408 167.068C523.882 167.519 524.458 167.851 525.086 168.035C525.715 168.219 526.378 168.25 527.021 168.126C527.664 168.001 528.268 167.724 528.783 167.319L530.547 169.084C530.639 169.172 530.761 169.221 530.887 169.219C531.014 169.218 531.135 169.168 531.225 169.078C531.314 168.988 531.365 168.867 531.366 168.74C531.367 168.614 531.319 168.492 531.231 168.401L529.466 166.636C529.943 166.03 530.241 165.302 530.324 164.536C530.407 163.769 530.272 162.994 529.936 162.3C529.599 161.606 529.074 161.021 528.42 160.612C527.767 160.203 527.011 159.986 526.24 159.986ZM523.099 164.093C523.099 163.26 523.43 162.461 524.019 161.872C524.608 161.283 525.407 160.952 526.24 160.952C527.073 160.952 527.872 161.283 528.461 161.872C529.05 162.461 529.381 163.26 529.381 164.093C529.381 164.926 529.05 165.725 528.461 166.314C527.872 166.903 527.073 167.234 526.24 167.234C525.407 167.234 524.608 166.903 524.019 166.314C523.43 165.725 523.099 164.926 523.099 164.093Z" fill="white"/>
</g>
<rect x="433.658" y="159.019" width="11.5974" height="11.5974" rx="2.10863" fill="#5220B3"/>
<rect x="481.102" y="186.431" width="54.8243" height="76.9649" rx="3.16294" fill="#242428" fill-opacity="0.86"/>
<rect x="427.332" y="187.486" width="46.3898" height="7.38019" rx="1.05431" fill="#2B2C32" fill-opacity="0.86"/>
<rect x="427.332" y="200.137" width="46.3898" height="5.27157" rx="1.05431" fill="#2B2C32" fill-opacity="0.86"/>
<rect x="427.332" y="207.518" width="46.3898" height="5.27157" rx="1.05431" fill="#2B2C32" fill-opacity="0.86"/>
<rect x="427.332" y="240.201" width="26.3578" height="6.32588" rx="1.05431" fill="#2B2C32" fill-opacity="0.86"/>
<rect x="427.332" y="251.799" width="29.5208" height="7.38019" rx="1.05431" fill="#2B2C32" fill-opacity="0.86"/>
<path d="M433.176 187.862C433.176 188.287 433.269 188.637 433.456 188.911C433.643 189.179 433.949 189.313 434.374 189.313C434.549 189.313 434.73 189.29 434.916 189.243C435.109 189.197 435.345 189.118 435.625 189.007L435.948 189.917C435.634 190.057 435.342 190.156 435.074 190.214C434.811 190.272 434.558 190.302 434.313 190.302C433.823 190.302 433.412 190.197 433.08 189.987C432.753 189.777 432.509 189.488 432.345 189.121C432.182 188.754 432.1 188.334 432.1 187.862V186.611C432.1 186.139 432.182 185.719 432.345 185.352C432.509 184.984 432.753 184.699 433.08 184.495C433.412 184.285 433.823 184.18 434.313 184.18C434.552 184.18 434.8 184.209 435.056 184.267C435.313 184.32 435.593 184.413 435.896 184.547L435.572 185.474C435.304 185.363 435.08 185.285 434.899 185.238C434.718 185.191 434.543 185.168 434.374 185.168C433.949 185.168 433.643 185.302 433.456 185.57C433.269 185.838 433.176 186.185 433.176 186.611V187.862ZM440.471 189.208V190.214H437.043V184.267H438.093V189.208H440.471ZM441.25 184.267H442.326V188.08C442.326 188.465 442.411 188.768 442.58 188.99C442.749 189.205 443.02 189.313 443.393 189.313C443.766 189.313 444.037 189.205 444.206 188.99C444.375 188.768 444.46 188.465 444.46 188.08V184.267H445.536V188.08C445.536 188.751 445.358 189.29 445.002 189.698C444.646 190.1 444.11 190.302 443.393 190.302C442.67 190.302 442.131 190.1 441.775 189.698C441.425 189.29 441.25 188.751 441.25 188.08V184.267ZM447.044 190.214V184.267H448.854C449.297 184.267 449.647 184.331 449.904 184.46C450.166 184.588 450.353 184.769 450.464 185.002C450.58 185.235 450.638 185.509 450.638 185.824V186.069C450.638 186.529 450.44 186.882 450.044 187.127C450.324 187.238 450.536 187.398 450.682 187.608C450.828 187.818 450.901 188.069 450.901 188.36V188.605C450.901 188.926 450.843 189.208 450.726 189.453C450.609 189.692 450.417 189.879 450.149 190.013C449.881 190.147 449.522 190.214 449.073 190.214H447.044ZM448.854 185.229H448.094V186.716H448.854C449.088 186.716 449.262 186.663 449.379 186.558C449.502 186.448 449.563 186.299 449.563 186.112V185.824C449.563 185.637 449.502 185.492 449.379 185.387C449.262 185.282 449.088 185.229 448.854 185.229ZM449.073 187.678H448.094V189.252H449.073C449.318 189.252 449.504 189.194 449.633 189.077C449.761 188.961 449.825 188.803 449.825 188.605V188.316C449.825 188.118 449.761 187.964 449.633 187.853C449.504 187.736 449.318 187.678 449.073 187.678ZM453.454 189.331C454.13 189.331 454.469 189.08 454.469 188.579C454.469 188.375 454.416 188.214 454.311 188.098C454.212 187.981 454.026 187.879 453.751 187.792L453.034 187.555C452.177 187.276 451.749 186.713 451.749 185.868C451.749 185.378 451.9 184.976 452.204 184.661C452.513 184.34 452.994 184.18 453.647 184.18C453.921 184.18 454.192 184.212 454.46 184.276C454.728 184.334 455.014 184.43 455.317 184.564L454.993 185.465C454.713 185.355 454.474 185.276 454.276 185.229C454.084 185.177 453.886 185.15 453.682 185.15C453.413 185.15 453.201 185.2 453.043 185.299C452.892 185.392 452.816 185.564 452.816 185.815C452.816 186.002 452.868 186.156 452.973 186.279C453.084 186.395 453.265 186.494 453.515 186.576L454.232 186.812C454.664 186.958 454.988 187.171 455.203 187.45C455.425 187.725 455.536 188.089 455.536 188.544C455.536 189.068 455.369 189.494 455.037 189.821C454.705 190.141 454.183 190.302 453.472 190.302C453.192 190.302 452.9 190.269 452.597 190.205C452.3 190.135 451.973 190.019 451.618 189.855L451.941 188.955C452.268 189.095 452.545 189.194 452.772 189.252C453.005 189.305 453.233 189.331 453.454 189.331Z" fill="white"/>
<g filter="url(#filter6_ii_3_205)">
<rect x="127.907" y="345.633" width="63.2588" height="65.3674" rx="5.27157" fill="#383B40"/>
</g>
<path d="M159.515 390.904C159.515 390.904 154.432 380.981 154.306 374.118C154.172 366.823 159.515 356.176 159.515 356.176C159.515 356.176 165.45 366.757 165.303 374.118C165.164 381.051 159.515 390.904 159.515 390.904Z" fill="#8F8F8F"/>
<path d="M159.785 394.886C159.785 394.886 150.94 395.933 145.765 394.118C140.264 392.19 133.776 385.227 133.776 385.227C133.776 385.227 143.352 383.725 148.824 385.882C153.977 387.914 159.785 394.886 159.785 394.886Z" fill="#929292"/>
<path d="M159.445 394.702C159.445 394.702 148.33 390.963 143.195 385.888C137.737 380.493 133.941 368.551 133.941 368.551C133.941 368.551 146.181 372.16 151.476 377.812C156.463 383.134 159.445 394.702 159.445 394.702Z" fill="#AFACAC"/>
<path d="M186.437 384.977C186.437 384.977 176.889 383.673 171.256 385.536C165.267 387.516 158.113 394.923 158.113 394.923C158.113 394.923 168.443 396.733 174.405 394.505C180.019 392.406 186.437 384.977 186.437 384.977Z" fill="#929292"/>
<path d="M159.036 395.116C159.036 395.116 162.621 383.345 167.789 377.805C173.282 371.916 185.693 367.573 185.693 367.573C185.693 367.573 182.278 380.521 176.511 386.247C171.08 391.638 159.036 395.116 159.036 395.116Z" fill="#AFACAC"/>
<path d="M159.531 395.116C159.531 395.116 152.433 389.593 150.003 384.619C147.419 379.33 147.698 369.725 147.698 369.725C147.698 369.725 155.643 375.439 158.043 380.871C160.304 385.987 159.531 395.116 159.531 395.116Z" fill="#7F7E7E"/>
<path d="M159.535 394.955C159.535 394.955 159.53 385.167 162.193 380.313C165.023 375.153 173.031 369.841 173.031 369.841C173.031 369.841 172.944 379.627 169.891 384.721C167.015 389.518 159.535 394.955 159.535 394.955Z" fill="#7F7E7E"/>
<g filter="url(#filter7_d_3_205)">
<g filter="url(#filter8_ii_3_205)">
<rect x="373.562" y="81" width="43.0837" height="44.5198" rx="7.21696" fill="#383B40"/>
</g>
<circle cx="384.43" cy="93.4378" r="2.15967" fill="#505050" stroke="#333333" stroke-width="0.148942"/>
<circle cx="384.43" cy="102.374" r="2.15967" fill="#505050" stroke="#333333" stroke-width="0.148942"/>
<circle cx="384.43" cy="112.8" r="2.15967" fill="#505050" stroke="#333333" stroke-width="0.148942"/>
<circle cx="394.856" cy="112.8" r="2.15967" fill="#505050" stroke="#333333" stroke-width="0.148942"/>
<g filter="url(#filter9_i_3_205)">
<circle cx="394.856" cy="102.374" r="2.23414" fill="#9A9A9A"/>
</g>
<circle cx="394.856" cy="93.4378" r="2.15967" fill="#505050" stroke="#333333" stroke-width="0.148942"/>
<g filter="url(#filter10_i_3_205)">
<circle cx="405.282" cy="93.4378" r="2.23414" fill="#9A9A9A"/>
</g>
<circle cx="405.282" cy="102.374" r="2.15967" fill="#505050" stroke="#333333" stroke-width="0.148942"/>
<g filter="url(#filter11_i_3_205)">
<circle cx="405.282" cy="112.8" r="2.23414" fill="#9A9A9A"/>
</g>
</g>
<g filter="url(#filter12_ii_3_205)">
<rect x="331.39" y="157.262" width="33.3299" height="34.4409" rx="5.58311" fill="#383B40"/>
</g>
<path d="M349.586 175.899C349.815 175.97 350.032 176.129 350.235 176.377C350.439 176.616 350.589 176.881 350.686 177.173C350.589 177.411 350.439 177.699 350.235 178.035C350.032 178.371 349.829 178.716 349.625 179.069C349.422 179.414 349.236 179.746 349.068 180.064C348.909 180.374 348.816 180.63 348.79 180.833C348.931 180.683 349.086 180.511 349.254 180.316C349.431 180.113 349.599 179.914 349.758 179.719C349.926 179.516 350.081 179.335 350.222 179.175C350.364 179.007 350.474 178.884 350.554 178.804C350.722 178.627 350.921 178.424 351.151 178.194C351.381 177.955 351.619 177.734 351.867 177.531C352.123 177.318 352.38 177.142 352.636 177C352.893 176.85 353.127 176.775 353.339 176.775C353.569 176.775 353.759 176.854 353.91 177.013C354.069 177.164 354.193 177.323 354.281 177.491C354.281 177.509 354.246 177.535 354.175 177.571C354.113 177.597 354.02 177.681 353.896 177.823C353.772 177.982 353.631 178.203 353.472 178.486C353.322 178.76 353.171 179.06 353.021 179.388C352.879 179.706 352.76 180.033 352.663 180.369C352.565 180.705 352.517 181.01 352.517 181.284C352.517 181.505 352.543 181.647 352.596 181.709C352.658 181.771 352.742 181.802 352.848 181.802C352.946 181.802 353.047 181.78 353.154 181.735C353.26 181.691 353.344 181.669 353.406 181.669C353.441 181.687 353.467 181.727 353.485 181.788C353.512 181.842 353.525 181.89 353.525 181.934C353.454 181.996 353.37 182.058 353.273 182.12C353.176 182.182 353.074 182.239 352.968 182.292C352.862 182.346 352.756 182.39 352.649 182.425C352.552 182.46 352.464 182.478 352.384 182.478C352.128 182.478 351.916 182.438 351.748 182.359C351.588 182.288 351.46 182.191 351.363 182.067C351.274 181.943 351.213 181.797 351.177 181.629C351.142 181.452 351.124 181.267 351.124 181.072C351.124 180.966 351.133 180.847 351.151 180.714C351.168 180.581 351.204 180.427 351.257 180.25C351.31 180.064 351.385 179.847 351.482 179.6C351.58 179.343 351.703 179.038 351.854 178.685C351.836 178.685 351.717 178.747 351.496 178.87C351.274 178.994 351.036 179.184 350.779 179.441C350.364 179.839 349.988 180.232 349.652 180.621C349.325 181.01 348.989 181.444 348.644 181.921C348.449 182.195 348.277 182.425 348.126 182.611C347.985 182.805 347.861 182.934 347.755 182.995C347.569 182.889 347.432 182.739 347.344 182.544C347.255 182.359 347.189 182.164 347.145 181.961C347.145 181.793 347.167 181.581 347.211 181.324C347.264 181.068 347.331 180.785 347.41 180.475C347.499 180.157 347.605 179.825 347.729 179.481C347.852 179.136 347.989 178.791 348.14 178.446C348.476 177.668 348.781 177.058 349.055 176.616C349.338 176.173 349.515 175.935 349.586 175.899ZM354.679 179.998C354.679 179.494 354.781 179.007 354.984 178.539C355.197 178.061 355.471 177.641 355.807 177.279C356.152 176.907 356.541 176.611 356.974 176.39C357.416 176.16 357.872 176.045 358.34 176.045C358.8 176.045 359.154 176.16 359.401 176.39C359.649 176.62 359.773 176.947 359.773 177.372C359.773 177.575 359.742 177.774 359.68 177.968C359.627 178.154 359.552 178.322 359.454 178.472C359.366 178.623 359.26 178.747 359.136 178.844C359.012 178.932 358.888 178.976 358.765 178.976C358.659 178.976 358.548 178.946 358.433 178.884C358.327 178.813 358.239 178.724 358.168 178.618C358.76 178.079 359.056 177.588 359.056 177.146C359.056 176.89 358.955 176.761 358.751 176.761C358.575 176.761 358.353 176.845 358.088 177.013C357.823 177.181 357.566 177.403 357.319 177.677C356.939 178.101 356.647 178.574 356.443 179.096C356.249 179.609 356.152 180.148 356.152 180.714C356.152 181.43 356.311 181.859 356.629 182.001C356.762 181.983 356.917 181.943 357.093 181.881C357.27 181.819 357.46 181.74 357.664 181.643C357.867 181.536 358.075 181.417 358.287 181.284C358.508 181.152 358.72 181.01 358.924 180.86C358.959 180.886 358.99 180.926 359.017 180.979C359.043 181.032 359.056 181.081 359.056 181.125C358.906 181.311 358.734 181.492 358.539 181.669C358.345 181.846 358.141 182.01 357.929 182.16C357.717 182.301 357.509 182.421 357.306 182.518C357.111 182.624 356.939 182.69 356.788 182.717C356.497 182.69 356.222 182.598 355.966 182.438C355.71 182.288 355.484 182.089 355.29 181.842C355.104 181.594 354.953 181.311 354.839 180.993C354.732 180.674 354.679 180.343 354.679 179.998Z" fill="white"/>
<path d="M348.955 170.662C349.474 170.662 349.879 170.808 350.171 171.099C350.479 171.391 350.633 171.796 350.633 172.315C350.633 172.445 350.625 172.583 350.608 172.729C350.592 172.858 350.56 172.972 350.511 173.069C350.3 173.037 350.065 173.012 349.806 172.996C349.547 172.964 349.239 172.947 348.882 172.947C348.152 172.947 347.423 173.012 346.693 173.142C345.964 173.272 345.267 173.377 344.602 173.458C343.873 175.177 343.273 176.79 342.803 178.297C342.333 179.805 341.968 181.296 341.708 182.772C341.157 182.642 340.671 182.407 340.249 182.066C339.828 181.726 339.431 181.248 339.058 180.632C339.171 180.372 339.309 180.064 339.471 179.708C339.633 179.335 339.828 178.873 340.055 178.322C340.282 177.754 340.549 177.073 340.857 176.279C341.181 175.468 341.562 174.504 342 173.385C341.319 173.158 340.873 172.761 340.663 172.194C340.744 172.113 340.971 172.023 341.344 171.926C341.716 171.813 342.17 171.691 342.705 171.561C342.949 170.929 343.159 170.37 343.338 169.883C343.516 169.381 343.678 168.911 343.824 168.473C343.97 168.019 344.1 167.581 344.213 167.16C344.343 166.722 344.456 166.26 344.553 165.774H344.432C343.816 165.774 343.313 165.628 342.924 165.336C342.551 165.044 342.365 164.663 342.365 164.193C342.365 164.064 342.381 163.91 342.414 163.731C342.462 163.553 342.519 163.399 342.584 163.269C342.892 163.318 343.192 163.35 343.484 163.366C343.792 163.383 344.189 163.391 344.675 163.391C345.696 163.391 346.653 163.366 347.544 163.318C348.436 163.253 349.239 163.188 349.952 163.123C350.681 163.058 351.306 163.002 351.824 162.953C352.343 162.888 352.74 162.856 353.016 162.856C353.389 162.856 353.721 163.05 354.013 163.439C354.305 163.828 354.532 164.38 354.694 165.093C354.175 165.044 353.753 165.012 353.429 164.996C353.121 164.98 352.846 164.971 352.602 164.971C351.776 164.971 351.014 165.012 350.317 165.093C349.636 165.158 348.987 165.239 348.371 165.336C348.274 165.482 348.161 165.669 348.031 165.895C347.917 166.122 347.763 166.447 347.569 166.868C347.374 167.273 347.123 167.808 346.815 168.473C346.523 169.138 346.15 169.981 345.696 171.002C346.329 170.905 346.928 170.824 347.496 170.759C348.079 170.694 348.566 170.662 348.955 170.662Z" fill="white"/>
<path d="M238.61 137.933V154.802" stroke="#464646" stroke-width="1.05431" stroke-linecap="round"/>
<g clip-path="url(#clip1_3_205)">
<path d="M254.128 138.987H246.287C244.376 138.987 242.827 140.536 242.827 142.447V150.288C242.827 152.199 244.376 153.748 246.287 153.748H254.128C256.039 153.748 257.588 152.199 257.588 150.288V142.447C257.588 140.536 256.039 138.987 254.128 138.987Z" fill="url(#paint3_radial_3_205)"/>
<path d="M254.128 138.987H246.287C244.376 138.987 242.827 140.536 242.827 142.447V150.288C242.827 152.199 244.376 153.748 246.287 153.748H254.128C256.039 153.748 257.588 152.199 257.588 150.288V142.447C257.588 140.536 256.039 138.987 254.128 138.987Z" fill="url(#paint4_radial_3_205)"/>
<path d="M250.208 140.602C248.642 140.602 248.446 140.609 247.831 140.636C247.217 140.665 246.798 140.762 246.431 140.904C246.052 141.052 245.73 141.249 245.41 141.569C245.089 141.89 244.892 142.211 244.744 142.59C244.601 142.957 244.504 143.376 244.476 143.99C244.449 144.605 244.442 144.802 244.442 146.367C244.442 147.933 244.449 148.129 244.477 148.744C244.505 149.358 244.602 149.777 244.744 150.144C244.892 150.523 245.089 150.845 245.409 151.165C245.73 151.486 246.052 151.683 246.431 151.831C246.797 151.973 247.216 152.07 247.83 152.098C248.445 152.126 248.642 152.133 250.207 152.133C251.773 152.133 251.969 152.126 252.584 152.098C253.198 152.07 253.618 151.973 253.984 151.831C254.364 151.683 254.685 151.486 255.005 151.165C255.326 150.845 255.523 150.523 255.671 150.144C255.812 149.777 255.91 149.358 255.938 148.744C255.966 148.129 255.973 147.933 255.973 146.367C255.973 144.802 255.966 144.605 255.938 143.99C255.91 143.376 255.812 142.957 255.671 142.591C255.523 142.211 255.326 141.89 255.005 141.569C254.684 141.249 254.364 141.051 253.984 140.904C253.617 140.762 253.197 140.665 252.584 140.636C251.968 140.609 251.773 140.602 250.206 140.602H250.208ZM249.691 141.641C249.844 141.64 250.016 141.641 250.208 141.641C251.748 141.641 251.93 141.646 252.538 141.674C253.1 141.7 253.405 141.793 253.608 141.872C253.878 141.977 254.069 142.102 254.271 142.304C254.473 142.505 254.598 142.698 254.703 142.967C254.781 143.17 254.876 143.475 254.901 144.037C254.929 144.645 254.935 144.827 254.935 146.366C254.935 147.905 254.929 148.088 254.901 148.695C254.875 149.257 254.781 149.563 254.703 149.766C254.598 150.035 254.473 150.226 254.271 150.428C254.069 150.63 253.878 150.755 253.608 150.859C253.405 150.938 253.1 151.032 252.538 151.058C251.93 151.085 251.748 151.091 250.208 151.091C248.668 151.091 248.486 151.085 247.878 151.058C247.316 151.032 247.011 150.938 246.808 150.859C246.538 150.755 246.346 150.63 246.144 150.428C245.943 150.226 245.818 150.034 245.713 149.765C245.634 149.562 245.54 149.257 245.514 148.695C245.487 148.087 245.481 147.904 245.481 146.365C245.481 144.825 245.487 144.643 245.514 144.036C245.54 143.473 245.634 143.168 245.713 142.965C245.818 142.696 245.943 142.504 246.145 142.302C246.346 142.1 246.538 141.975 246.808 141.871C247.011 141.791 247.316 141.698 247.878 141.672C248.41 141.648 248.616 141.64 249.691 141.639V141.641ZM253.286 142.598C252.904 142.598 252.594 142.908 252.594 143.29C252.594 143.672 252.904 143.982 253.286 143.982C253.668 143.982 253.978 143.672 253.978 143.29C253.978 142.908 253.668 142.598 253.286 142.598V142.598ZM250.208 143.406C248.573 143.406 247.247 144.732 247.247 146.367C247.247 148.003 248.573 149.328 250.208 149.328C251.843 149.328 253.169 148.003 253.169 146.367C253.169 144.732 251.843 143.406 250.208 143.406H250.208ZM250.208 144.446C251.269 144.446 252.13 145.306 252.13 146.367C252.13 147.429 251.269 148.289 250.208 148.289C249.147 148.289 248.286 147.429 248.286 146.367C248.286 145.306 249.147 144.446 250.208 144.446Z" fill="white"/>
</g>
<g clip-path="url(#clip2_3_205)">
<path d="M274.16 138.987H266.319C264.408 138.987 262.859 140.536 262.859 142.447V150.288C262.859 152.199 264.408 153.748 266.319 153.748H274.16C276.071 153.748 277.62 152.199 277.62 150.288V142.447C277.62 140.536 276.071 138.987 274.16 138.987Z" fill="white"/>
<path d="M274.16 138.987H266.319C264.408 138.987 262.859 140.536 262.859 142.447V150.288C262.859 152.199 264.408 153.748 266.319 153.748H274.16C276.071 153.748 277.62 152.199 277.62 150.288V142.447C277.62 140.536 276.071 138.987 274.16 138.987Z" fill="#0A66C2"/>
<path d="M273.51 151.538H275.197C275.258 151.538 275.317 151.514 275.36 151.471C275.404 151.428 275.428 151.369 275.428 151.308L275.429 147.742C275.429 145.879 275.027 144.446 272.849 144.446C272.021 144.415 271.241 144.842 270.819 145.555C270.817 145.558 270.814 145.561 270.81 145.562C270.807 145.564 270.803 145.564 270.799 145.563C270.795 145.562 270.791 145.56 270.789 145.557C270.786 145.553 270.785 145.549 270.785 145.545V144.849C270.785 144.788 270.761 144.729 270.718 144.686C270.674 144.642 270.616 144.618 270.554 144.618H268.953C268.892 144.618 268.833 144.642 268.79 144.686C268.747 144.729 268.722 144.788 268.722 144.849V151.308C268.722 151.369 268.747 151.427 268.79 151.471C268.833 151.514 268.892 151.538 268.953 151.538H270.64C270.702 151.538 270.76 151.514 270.803 151.471C270.847 151.427 270.871 151.369 270.871 151.308V148.115C270.871 147.212 271.042 146.338 272.161 146.338C273.265 146.338 273.279 147.371 273.279 148.173V151.308C273.279 151.369 273.303 151.428 273.347 151.471C273.39 151.514 273.449 151.538 273.51 151.538ZM265.05 142.425C265.05 143.109 265.614 143.672 266.298 143.672C266.982 143.672 267.544 143.109 267.544 142.425C267.544 141.741 266.981 141.178 266.297 141.178C265.613 141.178 265.05 141.741 265.05 142.425ZM265.452 151.538H267.141C267.203 151.538 267.261 151.514 267.305 151.471C267.348 151.428 267.372 151.369 267.372 151.308V144.849C267.372 144.788 267.348 144.729 267.305 144.686C267.261 144.642 267.203 144.618 267.141 144.618H265.452C265.39 144.618 265.332 144.642 265.289 144.686C265.245 144.729 265.221 144.788 265.221 144.849V151.308C265.221 151.369 265.245 151.428 265.289 151.471C265.332 151.514 265.39 151.538 265.452 151.538Z" fill="white"/>
</g>
<g clip-path="url(#clip3_3_205)">
<path d="M293.138 138.987H285.297C283.386 138.987 281.837 140.536 281.837 142.447V150.288C281.837 152.199 283.386 153.748 285.297 153.748H293.138C295.049 153.748 296.597 152.199 296.597 150.288V142.447C296.597 140.536 295.049 138.987 293.138 138.987Z" fill="white"/>
<path d="M293.138 138.987H285.297C283.386 138.987 281.837 140.536 281.837 142.447V150.288C281.837 152.199 283.386 153.748 285.297 153.748H293.138C295.049 153.748 296.597 152.199 296.597 150.288V142.447C296.597 140.536 295.049 138.987 293.138 138.987Z" fill="#1D9BF0"/>
<path d="M293.344 144.258C293.35 144.349 293.35 144.441 293.35 144.533C293.35 147.347 291.208 150.592 287.292 150.592V150.59C286.135 150.591 285.002 150.26 284.028 149.635C284.196 149.655 284.365 149.666 284.535 149.666C285.494 149.667 286.425 149.345 287.179 148.753C286.735 148.744 286.304 148.597 285.948 148.332C285.591 148.067 285.326 147.697 285.19 147.274C285.509 147.336 285.838 147.323 286.151 147.237C285.158 147.037 284.443 146.164 284.443 145.15V145.123C284.74 145.288 285.071 145.38 285.41 145.39C284.474 144.765 284.186 143.52 284.751 142.547C285.285 143.205 285.952 143.743 286.708 144.126C287.464 144.509 288.293 144.729 289.139 144.771C289.055 144.408 289.067 144.029 289.175 143.672C289.283 143.315 289.483 142.992 289.755 142.737C290.613 141.931 291.961 141.972 292.768 142.829C293.244 142.735 293.702 142.56 294.12 142.312C293.961 142.805 293.628 143.224 293.184 143.49C293.606 143.44 294.018 143.327 294.406 143.155C294.121 143.583 293.761 143.956 293.344 144.258Z" fill="white"/>
</g>
<g clip-path="url(#clip4_3_205)">
<path d="M147.412 144.259C146.713 144.259 146.043 144.536 145.548 145.031C145.054 145.525 144.776 146.196 144.776 146.895C144.776 147.594 145.054 148.264 145.548 148.758C146.043 149.253 146.713 149.53 147.412 149.53C148.111 149.53 148.782 149.253 149.276 148.758C149.77 148.264 150.048 147.594 150.048 146.895C150.048 146.196 149.77 145.525 149.276 145.031C148.782 144.536 148.111 144.259 147.412 144.259Z" fill="#7D7D7D" fill-opacity="0.69"/>
<path fill-rule="evenodd" clip-rule="evenodd" d="M144.249 138.987C142.991 138.987 141.784 139.487 140.894 140.377C140.005 141.267 139.505 142.473 139.505 143.732V150.058C139.505 151.316 140.005 152.523 140.894 153.412C141.784 154.302 142.991 154.802 144.249 154.802H150.575C151.833 154.802 153.04 154.302 153.93 153.412C154.82 152.523 155.319 151.316 155.319 150.058V143.732C155.319 142.473 154.82 141.267 153.93 140.377C153.04 139.487 151.833 138.987 150.575 138.987H144.249ZM143.722 146.895C143.722 145.916 144.111 144.977 144.803 144.285C145.495 143.593 146.433 143.204 147.412 143.204C148.391 143.204 149.329 143.593 150.021 144.285C150.713 144.977 151.102 145.916 151.102 146.895C151.102 147.873 150.713 148.812 150.021 149.504C149.329 150.196 148.391 150.585 147.412 150.585C146.433 150.585 145.495 150.196 144.803 149.504C144.111 148.812 143.722 147.873 143.722 146.895ZM151.102 143.204H152.157V142.15H151.102V143.204Z" fill="#7D7D7D" fill-opacity="0.69"/>
</g>
<g clip-path="url(#clip5_3_205)">
<path d="M175.075 139.389C175.741 139.389 176.38 139.653 176.85 140.124C177.321 140.595 177.586 141.233 177.586 141.899V151.94C177.586 152.606 177.321 153.244 176.85 153.715C176.38 154.186 175.741 154.45 175.075 154.45H165.034C164.368 154.45 163.73 154.186 163.259 153.715C162.788 153.244 162.524 152.606 162.524 151.94V141.899C162.524 141.233 162.788 140.595 163.259 140.124C163.73 139.653 164.368 139.389 165.034 139.389H175.075ZM175.075 141.062H165.034C164.812 141.062 164.599 141.151 164.443 141.307C164.286 141.464 164.197 141.677 164.197 141.899V151.94C164.197 152.162 164.286 152.375 164.443 152.532C164.599 152.689 164.812 152.777 165.034 152.777H175.075C175.297 152.777 175.51 152.689 175.667 152.532C175.824 152.375 175.912 152.162 175.912 151.94V141.899C175.912 141.677 175.824 141.464 175.667 141.307C175.51 141.151 175.297 141.062 175.075 141.062ZM166.708 145.246C166.913 145.246 167.11 145.321 167.264 145.458C167.417 145.594 167.515 145.781 167.539 145.985L167.544 146.083V150.267C167.544 150.48 167.463 150.685 167.316 150.84C167.17 150.995 166.97 151.089 166.757 151.101C166.544 151.114 166.334 151.044 166.171 150.907C166.007 150.771 165.902 150.576 165.877 150.365L165.871 150.267V146.083C165.871 145.861 165.959 145.648 166.116 145.491C166.273 145.334 166.486 145.246 166.708 145.246ZM169.218 144.409C169.414 144.409 169.604 144.478 169.754 144.604C169.905 144.729 170.006 144.904 170.041 145.096C170.21 144.999 170.384 144.912 170.563 144.834C171.121 144.596 171.957 144.465 172.711 144.701C173.107 144.827 173.505 145.061 173.799 145.46C174.063 145.816 174.205 146.249 174.233 146.735L174.239 146.92V150.267C174.238 150.48 174.157 150.685 174.01 150.84C173.864 150.995 173.664 151.089 173.451 151.101C173.238 151.114 173.028 151.044 172.865 150.907C172.701 150.771 172.596 150.576 172.571 150.365L172.565 150.267V146.92C172.565 146.644 172.498 146.515 172.455 146.455C172.392 146.378 172.306 146.322 172.209 146.298C171.918 146.206 171.499 146.254 171.22 146.373C170.802 146.552 170.419 146.833 170.158 147.094L170.055 147.204V150.267C170.054 150.48 169.973 150.685 169.826 150.84C169.68 150.995 169.48 151.089 169.267 151.101C169.054 151.114 168.844 151.044 168.681 150.907C168.517 150.771 168.412 150.576 168.387 150.365L168.381 150.267V145.246C168.381 145.024 168.469 144.811 168.626 144.654C168.783 144.498 168.996 144.409 169.218 144.409ZM166.708 142.736C166.93 142.736 167.142 142.824 167.299 142.981C167.456 143.138 167.544 143.351 167.544 143.573C167.544 143.795 167.456 144.007 167.299 144.164C167.142 144.321 166.93 144.409 166.708 144.409C166.486 144.409 166.273 144.321 166.116 144.164C165.959 144.007 165.871 143.795 165.871 143.573C165.871 143.351 165.959 143.138 166.116 142.981C166.273 142.824 166.486 142.736 166.708 142.736Z" fill="#7D7D7D" fill-opacity="0.69"/>
</g>
<path d="M200.105 140.569L200.632 140.534C200.626 140.431 200.588 140.331 200.525 140.249C200.462 140.166 200.377 140.104 200.279 140.071C200.181 140.037 200.075 140.032 199.974 140.058C199.874 140.084 199.783 140.139 199.714 140.217L200.105 140.569ZM199.58 143.689C199.58 143.549 199.525 143.415 199.426 143.316C199.327 143.217 199.193 143.161 199.053 143.161C198.913 143.161 198.779 143.217 198.68 143.316C198.581 143.415 198.526 143.549 198.526 143.689H199.58ZM185.368 152.166V151.639C185.255 151.639 185.145 151.675 185.054 151.743C184.963 151.81 184.896 151.905 184.863 152.013C184.83 152.121 184.833 152.238 184.871 152.344C184.909 152.451 184.981 152.542 185.075 152.605L185.368 152.166ZM186.42 140.569L186.915 140.384C186.879 140.288 186.815 140.204 186.733 140.144C186.65 140.083 186.551 140.048 186.448 140.042C186.346 140.037 186.244 140.062 186.155 140.113C186.066 140.165 185.995 140.242 185.949 140.334L186.42 140.569ZM190.631 150.058L191.004 150.43C191.068 150.366 191.114 150.288 191.138 150.201C191.163 150.115 191.165 150.024 191.144 149.937C191.124 149.849 191.081 149.769 191.021 149.702C190.96 149.636 190.884 149.586 190.799 149.558L190.631 150.058ZM198.248 141.595L197.857 141.949L198.047 142.159L198.327 142.117L198.248 141.595ZM199.58 140.604C199.634 141.424 199.583 141.922 199.45 142.297C199.322 142.661 199.096 142.96 198.688 143.351L199.418 144.112C199.88 143.67 200.236 143.235 200.445 142.649C200.648 142.073 200.69 141.407 200.632 140.534L199.58 140.604ZM199.58 144.456V143.689H198.526V144.457L199.58 144.456ZM192.211 143.775V144.786H193.265V143.775H192.211ZM192.211 144.786V145.313H193.265V144.786H192.211ZM195.938 140.042C195.448 140.042 194.962 140.139 194.51 140.326C194.057 140.514 193.646 140.789 193.3 141.136C192.953 141.483 192.679 141.894 192.492 142.347C192.304 142.8 192.208 143.285 192.208 143.775H193.263C193.262 143.423 193.331 143.075 193.466 142.75C193.6 142.425 193.797 142.13 194.046 141.881C194.294 141.632 194.589 141.435 194.914 141.3C195.239 141.166 195.587 141.096 195.939 141.096L195.938 140.042ZM198.525 144.456C198.526 149.006 194.843 152.693 190.302 152.693V153.748C195.426 153.748 199.58 149.587 199.58 144.456H198.525ZM185.927 140.753C186.5 142.284 188.651 145.313 192.738 145.313V144.259C189.242 144.259 187.393 141.665 186.914 140.384L185.927 140.753ZM185.949 140.334C184.845 142.544 184.675 144.688 185.478 146.514C186.278 148.335 188 149.735 190.465 150.557L190.799 149.558C188.527 148.799 187.09 147.563 186.442 146.089C185.797 144.621 185.891 142.81 186.893 140.804L185.949 140.334ZM190.258 149.685C189.623 150.321 187.715 151.639 185.368 151.639V152.693C188.073 152.693 190.236 151.201 191.004 150.43L190.258 149.685ZM198.639 141.241C198.298 140.863 197.881 140.561 197.416 140.355C196.951 140.148 196.448 140.041 195.939 140.042V141.096C196.699 141.096 197.383 141.424 197.857 141.949L198.639 141.241ZM198.327 142.117C199.166 141.979 199.933 141.557 200.498 140.921L199.714 140.217C199.312 140.671 198.767 140.973 198.168 141.074L198.327 142.117ZM185.075 152.605C186.805 153.758 188.618 153.748 190.302 153.748V152.693C188.584 152.693 187.089 152.682 185.661 151.728L185.075 152.605Z" fill="#7D7D7D" fill-opacity="0.69"/>
<path d="M214.008 140.042C210.125 140.042 206.981 143.188 206.981 147.069C206.981 150.174 208.994 152.807 211.786 153.735C212.137 153.802 212.266 153.584 212.266 153.398C212.266 153.231 212.26 152.789 212.257 152.203C210.302 152.627 209.89 151.26 209.89 151.26C209.57 150.449 209.108 150.232 209.108 150.232C208.472 149.797 209.157 149.806 209.157 149.806C209.863 149.855 210.234 150.529 210.234 150.529C210.86 151.604 211.879 151.294 212.28 151.114C212.344 150.659 212.525 150.35 212.725 150.174C211.165 149.998 209.525 149.394 209.525 146.701C209.525 145.934 209.797 145.308 210.248 144.816C210.169 144.638 209.932 143.924 210.309 142.956C210.309 142.956 210.898 142.767 212.242 143.676C212.804 143.52 213.401 143.443 213.998 143.439C214.596 143.443 215.193 143.52 215.755 143.676C217.09 142.767 217.679 142.956 217.679 142.956C218.057 143.924 217.819 144.638 217.749 144.816C218.197 145.308 218.469 145.934 218.469 146.701C218.469 149.401 216.827 149.995 215.263 150.168C215.509 150.379 215.738 150.81 215.738 151.468C215.738 152.409 215.729 153.164 215.729 153.392C215.729 153.577 215.852 153.796 216.212 153.726C219.023 152.804 221.035 150.169 221.035 147.069C221.035 143.188 217.889 140.042 214.008 140.042Z" fill="#7D7D7D" fill-opacity="0.69"/>
<path d="M70.0653 146.238L62.4316 138.61C62.3766 138.554 62.3113 138.511 62.2395 138.481C62.1676 138.451 62.0906 138.436 62.0128 138.436C61.9349 138.436 61.8579 138.451 61.786 138.481C61.7142 138.511 61.6489 138.554 61.5939 138.61L53.9602 146.238C53.7378 146.46 53.6118 146.762 53.6118 147.077C53.6118 147.731 54.1437 148.263 54.7979 148.263H55.6022V153.706C55.6022 154.034 55.8673 154.299 56.1953 154.299H60.8267V150.148H62.9023V154.299H67.8302C68.1582 154.299 68.4233 154.034 68.4233 153.706V148.263H69.2276C69.5427 148.263 69.8447 148.139 70.0671 147.915C70.5286 147.452 70.5286 146.701 70.0653 146.238Z" fill="#949494"/>
<defs>
<filter id="filter0_di_3_205" x="46.7253" y="58.8594" width="461.789" height="364.792" filterUnits="userSpaceOnUse" color-interpolation-filters="sRGB">
<feFlood flood-opacity="0" result="BackgroundImageFix"/>
<feColorMatrix in="SourceAlpha" type="matrix" values="0 0 0 0 0 0 0 0 0 0 0 0 0 0 0 0 0 0 127 0" result="hardAlpha"/>
<feMorphology radius="9.48882" operator="dilate" in="SourceAlpha" result="effect1_dropShadow_3_205"/>
<feOffset dy="6.32588"/>
<feGaussianBlur stdDeviation="13.1789"/>
<feComposite in2="hardAlpha" operator="out"/>
<feColorMatrix type="matrix" values="0 0 0 0 0.00794779 0 0 0 0 0.00793424 0 0 0 0 0.00793424 0 0 0 0.69 0"/>
<feBlend mode="normal" in2="BackgroundImageFix" result="effect1_dropShadow_3_205"/>
<feBlend mode="normal" in="SourceGraphic" in2="effect1_dropShadow_3_205" result="shape"/>
<feColorMatrix in="SourceAlpha" type="matrix" values="0 0 0 0 0 0 0 0 0 0 0 0 0 0 0 0 0 0 127 0" result="hardAlpha"/>
<feMorphology radius="2.10863" operator="erode" in="SourceAlpha" result="effect2_innerShadow_3_205"/>
<feOffset dy="1.05431"/>
<feGaussianBlur stdDeviation="1.58147"/>
<feComposite in2="hardAlpha" operator="arithmetic" k2="-1" k3="1"/>
<feColorMatrix type="matrix" values="0 0 0 0 0.608438 0 0 0 0 0.608438 0 0 0 0 0.608438 0 0 0 0.12 0"/>
<feBlend mode="normal" in2="shape" result="effect2_innerShadow_3_205"/>
</filter>
<filter id="filter1_i_3_205" x="85.7349" y="89.4345" width="383.77" height="30.5751" filterUnits="userSpaceOnUse" color-interpolation-filters="sRGB">
<feFlood flood-opacity="0" result="BackgroundImageFix"/>
<feBlend mode="normal" in="SourceGraphic" in2="BackgroundImageFix" result="shape"/>
<feColorMatrix in="SourceAlpha" type="matrix" values="0 0 0 0 0 0 0 0 0 0 0 0 0 0 0 0 0 0 127 0" result="hardAlpha"/>
<feMorphology radius="5.27157" operator="dilate" in="SourceAlpha" result="effect1_innerShadow_3_205"/>
<feOffset dy="-6.32588"/>
<feGaussianBlur stdDeviation="3.6901"/>
<feComposite in2="hardAlpha" operator="arithmetic" k2="-1" k3="1"/>
<feColorMatrix type="matrix" values="0 0 0 0 0 0 0 0 0 0 0 0 0 0 0 0 0 0 0.15 0"/>
<feBlend mode="normal" in2="shape" result="effect1_innerShadow_3_205"/>
</filter>
<filter id="filter2_d_3_205" x="34.0734" y="128.444" width="293.099" height="56.9329" filterUnits="userSpaceOnUse" color-interpolation-filters="sRGB">
<feFlood flood-opacity="0" result="BackgroundImageFix"/>
<feColorMatrix in="SourceAlpha" type="matrix" values="0 0 0 0 0 0 0 0 0 0 0 0 0 0 0 0 0 0 127 0" result="hardAlpha"/>
<feOffset dx="4.21725" dy="10.5431"/>
<feGaussianBlur stdDeviation="7.38019"/>
<feComposite in2="hardAlpha" operator="out"/>
<feColorMatrix type="matrix" values="0 0 0 0 0 0 0 0 0 0 0 0 0 0 0 0 0 0 0.43 0"/>
<feBlend mode="normal" in2="BackgroundImageFix" result="effect1_dropShadow_3_205"/>
<feBlend mode="normal" in="SourceGraphic" in2="effect1_dropShadow_3_205" result="shape"/>
</filter>
<filter id="filter3_d_3_205" x="6.66138" y="162.982" width="308.914" height="190.031" filterUnits="userSpaceOnUse" color-interpolation-filters="sRGB">
<feFlood flood-opacity="0" result="BackgroundImageFix"/>
<feColorMatrix in="SourceAlpha" type="matrix" values="0 0 0 0 0 0 0 0 0 0 0 0 0 0 0 0 0 0 127 0" result="hardAlpha"/>
<feOffset dx="12.6518" dy="10.5431"/>
<feGaussianBlur stdDeviation="14.2332"/>
<feComposite in2="hardAlpha" operator="out"/>
<feColorMatrix type="matrix" values="0 0 0 0 0 0 0 0 0 0 0 0 0 0 0 0 0 0 0.25 0"/>
<feBlend mode="normal" in2="BackgroundImageFix" result="effect1_dropShadow_3_205"/>
<feBlend mode="normal" in="SourceGraphic" in2="effect1_dropShadow_3_205" result="shape"/>
</filter>
<filter id="filter4_i_3_205" x="293.333" y="203.3" width="99.3356" height="69.5847" filterUnits="userSpaceOnUse" color-interpolation-filters="sRGB">
<feFlood flood-opacity="0" result="BackgroundImageFix"/>
<feBlend mode="normal" in="SourceGraphic" in2="BackgroundImageFix" result="shape"/>
<feColorMatrix in="SourceAlpha" type="matrix" values="0 0 0 0 0 0 0 0 0 0 0 0 0 0 0 0 0 0 127 0" result="hardAlpha"/>
<feOffset dx="-12.0613"/>
<feGaussianBlur stdDeviation="3.71118"/>
<feComposite in2="hardAlpha" operator="arithmetic" k2="-1" k3="1"/>
<feColorMatrix type="matrix" values="0 0 0 0 0 0 0 0 0 0 0 0 0 0 0 0 0 0 0.23 0"/>
<feBlend mode="normal" in2="shape" result="effect1_innerShadow_3_205"/>
</filter>
<filter id="filter5_d_3_205" x="418.898" y="149.53" width="134.952" height="141.278" filterUnits="userSpaceOnUse" color-interpolation-filters="sRGB">
<feFlood flood-opacity="0" result="BackgroundImageFix"/>
<feColorMatrix in="SourceAlpha" type="matrix" values="0 0 0 0 0 0 0 0 0 0 0 0 0 0 0 0 0 0 127 0" result="hardAlpha"/>
<feMorphology radius="2.10863" operator="erode" in="SourceAlpha" result="effect1_dropShadow_3_205"/>
<feOffset dx="4.21725" dy="4.21725"/>
<feGaussianBlur stdDeviation="2.10863"/>
<feComposite in2="hardAlpha" operator="out"/>
<feColorMatrix type="matrix" values="0 0 0 0 0 0 0 0 0 0 0 0 0 0 0 0 0 0 0.37 0"/>
<feBlend mode="normal" in2="BackgroundImageFix" result="effect1_dropShadow_3_205"/>
<feBlend mode="normal" in="SourceGraphic" in2="effect1_dropShadow_3_205" result="shape"/>
</filter>
<filter id="filter6_ii_3_205" x="127.907" y="345.633" width="65.3674" height="67.476" filterUnits="userSpaceOnUse" color-interpolation-filters="sRGB">
<feFlood flood-opacity="0" result="BackgroundImageFix"/>
<feBlend mode="normal" in="SourceGraphic" in2="BackgroundImageFix" result="shape"/>
<feColorMatrix in="SourceAlpha" type="matrix" values="0 0 0 0 0 0 0 0 0 0 0 0 0 0 0 0 0 0 127 0" result="hardAlpha"/>
<feOffset dx="2.10863" dy="2.10863"/>
<feGaussianBlur stdDeviation="1.05431"/>
<feComposite in2="hardAlpha" operator="arithmetic" k2="-1" k3="1"/>
<feColorMatrix type="matrix" values="0 0 0 0 0.735072 0 0 0 0 0.733818 0 0 0 0 0.733818 0 0 0 0.25 0"/>
<feBlend mode="normal" in2="shape" result="effect1_innerShadow_3_205"/>
<feColorMatrix in="SourceAlpha" type="matrix" values="0 0 0 0 0 0 0 0 0 0 0 0 0 0 0 0 0 0 127 0" result="hardAlpha"/>
<feMorphology radius="1.05431" operator="erode" in="SourceAlpha" result="effect2_innerShadow_3_205"/>
<feOffset/>
<feGaussianBlur stdDeviation="1.05431"/>
<feComposite in2="hardAlpha" operator="arithmetic" k2="-1" k3="1"/>
<feColorMatrix type="matrix" values="0 0 0 0 0.0242877 0 0 0 0 0.0242877 0 0 0 0 0.0242877 0 0 0 0.37 0"/>
<feBlend mode="normal" in2="effect1_innerShadow_3_205" result="effect2_innerShadow_3_205"/>
</filter>
<filter id="filter7_d_3_205" x="333.498" y="72.5655" width="97.908" height="99.3441" filterUnits="userSpaceOnUse" color-interpolation-filters="sRGB">
<feFlood flood-opacity="0" result="BackgroundImageFix"/>
<feColorMatrix in="SourceAlpha" type="matrix" values="0 0 0 0 0 0 0 0 0 0 0 0 0 0 0 0 0 0 127 0" result="hardAlpha"/>
<feOffset dx="-12.6518" dy="18.9776"/>
<feGaussianBlur stdDeviation="13.7061"/>
<feComposite in2="hardAlpha" operator="out"/>
<feColorMatrix type="matrix" values="0 0 0 0 0 0 0 0 0 0 0 0 0 0 0 0 0 0 0.52 0"/>
<feBlend mode="normal" in2="BackgroundImageFix" result="effect1_dropShadow_3_205"/>
<feBlend mode="normal" in="SourceGraphic" in2="effect1_dropShadow_3_205" result="shape"/>
</filter>
<filter id="filter8_ii_3_205" x="373.562" y="81" width="45.7356" height="47.1717" filterUnits="userSpaceOnUse" color-interpolation-filters="sRGB">
<feFlood flood-opacity="0" result="BackgroundImageFix"/>
<feBlend mode="normal" in="SourceGraphic" in2="BackgroundImageFix" result="shape"/>
<feColorMatrix in="SourceAlpha" type="matrix" values="0 0 0 0 0 0 0 0 0 0 0 0 0 0 0 0 0 0 127 0" result="hardAlpha"/>
<feOffset dx="2.65187" dy="2.65187"/>
<feGaussianBlur stdDeviation="1.32594"/>
<feComposite in2="hardAlpha" operator="arithmetic" k2="-1" k3="1"/>
<feColorMatrix type="matrix" values="0 0 0 0 0.735072 0 0 0 0 0.733818 0 0 0 0 0.733818 0 0 0 0.52 0"/>
<feBlend mode="normal" in2="shape" result="effect1_innerShadow_3_205"/>
<feColorMatrix in="SourceAlpha" type="matrix" values="0 0 0 0 0 0 0 0 0 0 0 0 0 0 0 0 0 0 127 0" result="hardAlpha"/>
<feMorphology radius="1.92533" operator="erode" in="SourceAlpha" result="effect2_innerShadow_3_205"/>
<feOffset/>
<feGaussianBlur stdDeviation="1.32594"/>
<feComposite in2="hardAlpha" operator="arithmetic" k2="-1" k3="1"/>
<feColorMatrix type="matrix" values="0 0 0 0 0.0242877 0 0 0 0 0.0242877 0 0 0 0 0.0242877 0 0 0 0.37 0"/>
<feBlend mode="normal" in2="effect1_innerShadow_3_205" result="effect2_innerShadow_3_205"/>
</filter>
<filter id="filter9_i_3_205" x="392.622" y="100.14" width="4.76615" height="4.76616" filterUnits="userSpaceOnUse" color-interpolation-filters="sRGB">
<feFlood flood-opacity="0" result="BackgroundImageFix"/>
<feBlend mode="normal" in="SourceGraphic" in2="BackgroundImageFix" result="shape"/>
<feColorMatrix in="SourceAlpha" type="matrix" values="0 0 0 0 0 0 0 0 0 0 0 0 0 0 0 0 0 0 127 0" result="hardAlpha"/>
<feOffset dx="0.297885" dy="0.297885"/>
<feGaussianBlur stdDeviation="0.744712"/>
<feComposite in2="hardAlpha" operator="arithmetic" k2="-1" k3="1"/>
<feColorMatrix type="matrix" values="0 0 0 0 0 0 0 0 0 0 0 0 0 0 0 0 0 0 1 0"/>
<feBlend mode="normal" in2="shape" result="effect1_innerShadow_3_205"/>
</filter>
<filter id="filter10_i_3_205" x="403.048" y="91.2037" width="4.76615" height="4.76616" filterUnits="userSpaceOnUse" color-interpolation-filters="sRGB">
<feFlood flood-opacity="0" result="BackgroundImageFix"/>
<feBlend mode="normal" in="SourceGraphic" in2="BackgroundImageFix" result="shape"/>
<feColorMatrix in="SourceAlpha" type="matrix" values="0 0 0 0 0 0 0 0 0 0 0 0 0 0 0 0 0 0 127 0" result="hardAlpha"/>
<feOffset dx="0.297885" dy="0.297885"/>
<feGaussianBlur stdDeviation="0.744712"/>
<feComposite in2="hardAlpha" operator="arithmetic" k2="-1" k3="1"/>
<feColorMatrix type="matrix" values="0 0 0 0 0 0 0 0 0 0 0 0 0 0 0 0 0 0 1 0"/>
<feBlend mode="normal" in2="shape" result="effect1_innerShadow_3_205"/>
</filter>
<filter id="filter11_i_3_205" x="403.048" y="110.566" width="4.76615" height="4.76616" filterUnits="userSpaceOnUse" color-interpolation-filters="sRGB">
<feFlood flood-opacity="0" result="BackgroundImageFix"/>
<feBlend mode="normal" in="SourceGraphic" in2="BackgroundImageFix" result="shape"/>
<feColorMatrix in="SourceAlpha" type="matrix" values="0 0 0 0 0 0 0 0 0 0 0 0 0 0 0 0 0 0 127 0" result="hardAlpha"/>
<feOffset dx="0.297885" dy="0.297885"/>
<feGaussianBlur stdDeviation="0.744712"/>
<feComposite in2="hardAlpha" operator="arithmetic" k2="-1" k3="1"/>
<feColorMatrix type="matrix" values="0 0 0 0 0 0 0 0 0 0 0 0 0 0 0 0 0 0 1 0"/>
<feBlend mode="normal" in2="shape" result="effect1_innerShadow_3_205"/>
</filter>
<filter id="filter12_ii_3_205" x="331.39" y="157.262" width="35.3815" height="36.4924" filterUnits="userSpaceOnUse" color-interpolation-filters="sRGB">
<feFlood flood-opacity="0" result="BackgroundImageFix"/>
<feBlend mode="normal" in="SourceGraphic" in2="BackgroundImageFix" result="shape"/>
<feColorMatrix in="SourceAlpha" type="matrix" values="0 0 0 0 0 0 0 0 0 0 0 0 0 0 0 0 0 0 127 0" result="hardAlpha"/>
<feOffset dx="2.05151" dy="2.05151"/>
<feGaussianBlur stdDeviation="1.02576"/>
<feComposite in2="hardAlpha" operator="arithmetic" k2="-1" k3="1"/>
<feColorMatrix type="matrix" values="0 0 0 0 0.735072 0 0 0 0 0.733818 0 0 0 0 0.733818 0 0 0 0.52 0"/>
<feBlend mode="normal" in2="shape" result="effect1_innerShadow_3_205"/>
<feColorMatrix in="SourceAlpha" type="matrix" values="0 0 0 0 0 0 0 0 0 0 0 0 0 0 0 0 0 0 127 0" result="hardAlpha"/>
<feMorphology radius="1.48945" operator="erode" in="SourceAlpha" result="effect2_innerShadow_3_205"/>
<feOffset/>
<feGaussianBlur stdDeviation="1.02576"/>
<feComposite in2="hardAlpha" operator="arithmetic" k2="-1" k3="1"/>
<feColorMatrix type="matrix" values="0 0 0 0 0.0242877 0 0 0 0 0.0242877 0 0 0 0 0.0242877 0 0 0 0.37 0"/>
<feBlend mode="normal" in2="effect1_innerShadow_3_205" result="effect2_innerShadow_3_205"/>
</filter>
<linearGradient id="paint0_linear_3_205" x1="150.048" y1="116.847" x2="476.358" y2="218.588" gradientUnits="userSpaceOnUse">
<stop stop-color="white" stop-opacity="0.2"/>
<stop offset="1" stop-color="#666666" stop-opacity="0.02"/>
</linearGradient>
<linearGradient id="paint1_linear_3_205" x1="217.524" y1="223.332" x2="164.808" y2="71.5112" gradientUnits="userSpaceOnUse">
<stop stop-color="#38393B"/>
<stop offset="0.115307" stop-color="#292C31"/>
<stop offset="0.543388" stop-color="#313131"/>
<stop offset="0.554671" stop-color="#37383A"/>
</linearGradient>
<linearGradient id="paint2_linear_3_205" x1="530.128" y1="223.859" x2="421.533" y2="173.252" gradientUnits="userSpaceOnUse">
<stop stop-color="#3D3C3C" stop-opacity="0.1"/>
<stop offset="1" stop-color="#505050"/>
</linearGradient>
<radialGradient id="paint3_radial_3_205" cx="0" cy="0" r="1" gradientUnits="userSpaceOnUse" gradientTransform="translate(246.748 154.884) rotate(-90) scale(14.6286 13.6058)">
<stop stop-color="#FFDD55"/>
<stop offset="0.1" stop-color="#FFDD55"/>
<stop offset="0.5" stop-color="#FF543E"/>
<stop offset="1" stop-color="#C837AB"/>
</radialGradient>
<radialGradient id="paint4_radial_3_205" cx="0" cy="0" r="1" gradientUnits="userSpaceOnUse" gradientTransform="translate(240.355 140.05) rotate(78.681) scale(6.53908 26.9543)">
<stop stop-color="#3771C8"/>
<stop offset="0.128" stop-color="#3771C8"/>
<stop offset="1" stop-color="#6600FF" stop-opacity="0"/>
</radialGradient>
<clipPath id="clip0_3_205">
<rect width="11.5974" height="11.5974" fill="white" transform="translate(521.166 159.019)"/>
</clipPath>
<clipPath id="clip1_3_205">
<rect width="14.7604" height="14.7604" fill="white" transform="translate(242.827 138.987)"/>
</clipPath>
<clipPath id="clip2_3_205">
<rect width="14.7604" height="14.7604" fill="white" transform="translate(262.859 138.987)"/>
</clipPath>
<clipPath id="clip3_3_205">
<rect width="14.7604" height="14.7604" fill="white" transform="translate(281.837 138.987)"/>
</clipPath>
<clipPath id="clip4_3_205">
<rect width="15.8147" height="15.8147" fill="white" transform="translate(139.505 138.987)"/>
</clipPath>
<clipPath id="clip5_3_205">
<rect width="21.0863" height="21.0863" fill="white" transform="translate(159.01 136.879)"/>
</clipPath>
</defs>
</svg>
